<mxfile host="app.diagrams.net" agent="Mozilla/5.0 (Windows NT 10.0; Win64; x64) AppleWebKit/537.36 (KHTML, like Gecko) Chrome/127.0.0.0 Safari/537.36" version="24.7.7">
  <diagram name="Página-1" id="6uYTjtTbpKD6BJIKNZ0e">
    <mxGraphModel grid="1" page="1" gridSize="10" guides="1" tooltips="1" connect="1" arrows="1" fold="1" pageScale="1" pageWidth="827" pageHeight="1169" math="0" shadow="0">
      <root>
        <mxCell id="0" />
        <mxCell id="1" parent="0" />
        <mxCell id="fDs1axNgyrMjnGepGOiw-19" style="edgeStyle=orthogonalEdgeStyle;rounded=0;orthogonalLoop=1;jettySize=auto;html=1;exitX=0.5;exitY=1;exitDx=0;exitDy=0;entryX=0.5;entryY=0;entryDx=0;entryDy=0;" edge="1" parent="1" source="IiuVuttZTFxhuslUl3Ys-1">
          <mxGeometry relative="1" as="geometry">
            <mxPoint x="350" y="-2180" as="targetPoint" />
          </mxGeometry>
        </mxCell>
        <mxCell id="IiuVuttZTFxhuslUl3Ys-1" value="Inicio" style="ellipse;whiteSpace=wrap;html=1;" vertex="1" parent="1">
          <mxGeometry x="320" y="-2240" width="60" height="30" as="geometry" />
        </mxCell>
        <mxCell id="fDs1axNgyrMjnGepGOiw-13" style="edgeStyle=orthogonalEdgeStyle;rounded=0;orthogonalLoop=1;jettySize=auto;html=1;exitX=1;exitY=0.5;exitDx=0;exitDy=0;" edge="1" parent="1" source="fDs1axNgyrMjnGepGOiw-2" target="IiuVuttZTFxhuslUl3Ys-1">
          <mxGeometry relative="1" as="geometry" />
        </mxCell>
        <mxCell id="fDs1axNgyrMjnGepGOiw-2" value="LINHA=3,COLUNA=2&lt;div&gt;inteiro&lt;/div&gt;" style="rounded=0;whiteSpace=wrap;html=1;" vertex="1" parent="1">
          <mxGeometry x="40" y="-2290" width="130" height="60" as="geometry" />
        </mxCell>
        <mxCell id="fDs1axNgyrMjnGepGOiw-9" style="edgeStyle=orthogonalEdgeStyle;rounded=0;orthogonalLoop=1;jettySize=auto;html=1;exitX=1;exitY=0.5;exitDx=0;exitDy=0;entryX=0;entryY=0.5;entryDx=0;entryDy=0;" edge="1" parent="1" source="fDs1axNgyrMjnGepGOiw-3" target="IiuVuttZTFxhuslUl3Ys-1">
          <mxGeometry relative="1" as="geometry" />
        </mxCell>
        <mxCell id="fDs1axNgyrMjnGepGOiw-3" value="matrizProdutos[LINHA][COLUNA]&lt;div&gt;cadeia&lt;/div&gt;" style="rounded=0;whiteSpace=wrap;html=1;" vertex="1" parent="1">
          <mxGeometry x="40" y="-2220" width="130" height="60" as="geometry" />
        </mxCell>
        <mxCell id="fDs1axNgyrMjnGepGOiw-16" style="edgeStyle=orthogonalEdgeStyle;rounded=0;orthogonalLoop=1;jettySize=auto;html=1;exitX=1;exitY=0.5;exitDx=0;exitDy=0;entryX=0;entryY=0.5;entryDx=0;entryDy=0;" edge="1" parent="1" source="fDs1axNgyrMjnGepGOiw-4" target="IiuVuttZTFxhuslUl3Ys-1">
          <mxGeometry relative="1" as="geometry" />
        </mxCell>
        <mxCell id="fDs1axNgyrMjnGepGOiw-4" value="opcao, contador=0&lt;div&gt;inteiro&lt;/div&gt;" style="rounded=0;whiteSpace=wrap;html=1;" vertex="1" parent="1">
          <mxGeometry x="40" y="-2150" width="130" height="60" as="geometry" />
        </mxCell>
        <mxCell id="fDs1axNgyrMjnGepGOiw-17" style="edgeStyle=orthogonalEdgeStyle;rounded=0;orthogonalLoop=1;jettySize=auto;html=1;exitX=1;exitY=0.5;exitDx=0;exitDy=0;entryX=0;entryY=0.5;entryDx=0;entryDy=0;" edge="1" parent="1" source="fDs1axNgyrMjnGepGOiw-5" target="IiuVuttZTFxhuslUl3Ys-1">
          <mxGeometry relative="1" as="geometry" />
        </mxCell>
        <mxCell id="fDs1axNgyrMjnGepGOiw-5" value="op&lt;div&gt;caracter&lt;/div&gt;" style="rounded=0;whiteSpace=wrap;html=1;" vertex="1" parent="1">
          <mxGeometry x="40" y="-2080" width="130" height="60" as="geometry" />
        </mxCell>
        <mxCell id="fDs1axNgyrMjnGepGOiw-22" value="Bem-vindo ao programa Estoque!" style="strokeWidth=2;html=1;shape=mxgraph.flowchart.display;whiteSpace=wrap;" vertex="1" parent="1">
          <mxGeometry x="290" y="-2180" width="130" height="60" as="geometry" />
        </mxCell>
        <mxCell id="fDs1axNgyrMjnGepGOiw-34" style="edgeStyle=orthogonalEdgeStyle;rounded=0;orthogonalLoop=1;jettySize=auto;html=1;exitX=0.5;exitY=1;exitDx=0;exitDy=0;exitPerimeter=0;entryX=0.5;entryY=0;entryDx=0;entryDy=0;" edge="1" parent="1" source="fDs1axNgyrMjnGepGOiw-24" target="fDs1axNgyrMjnGepGOiw-33">
          <mxGeometry relative="1" as="geometry" />
        </mxCell>
        <mxCell id="fDs1axNgyrMjnGepGOiw-24" value="Cadastro de Produtos" style="strokeWidth=2;html=1;shape=mxgraph.flowchart.display;whiteSpace=wrap;" vertex="1" parent="1">
          <mxGeometry x="290" y="-2090" width="130" height="60" as="geometry" />
        </mxCell>
        <mxCell id="fDs1axNgyrMjnGepGOiw-25" style="edgeStyle=orthogonalEdgeStyle;rounded=0;orthogonalLoop=1;jettySize=auto;html=1;exitX=0.5;exitY=1;exitDx=0;exitDy=0;exitPerimeter=0;entryX=0.5;entryY=0;entryDx=0;entryDy=0;entryPerimeter=0;" edge="1" parent="1" source="fDs1axNgyrMjnGepGOiw-22" target="fDs1axNgyrMjnGepGOiw-24">
          <mxGeometry relative="1" as="geometry" />
        </mxCell>
        <mxCell id="fDs1axNgyrMjnGepGOiw-33" value="i&amp;lt;LINHA, i" style="shape=hexagon;perimeter=hexagonPerimeter2;whiteSpace=wrap;html=1;fixedSize=1;" vertex="1" parent="1">
          <mxGeometry x="300" y="-2000" width="120" height="40" as="geometry" />
        </mxCell>
        <mxCell id="fDs1axNgyrMjnGepGOiw-35" value="Informe o &quot;, i+1, &quot;° produto:" style="strokeWidth=2;html=1;shape=mxgraph.flowchart.display;whiteSpace=wrap;" vertex="1" parent="1">
          <mxGeometry x="290" y="-1930" width="130" height="50" as="geometry" />
        </mxCell>
        <mxCell id="fDs1axNgyrMjnGepGOiw-36" style="edgeStyle=orthogonalEdgeStyle;rounded=0;orthogonalLoop=1;jettySize=auto;html=1;exitX=0.5;exitY=1;exitDx=0;exitDy=0;entryX=0.5;entryY=0;entryDx=0;entryDy=0;entryPerimeter=0;" edge="1" parent="1" source="fDs1axNgyrMjnGepGOiw-33" target="fDs1axNgyrMjnGepGOiw-35">
          <mxGeometry relative="1" as="geometry" />
        </mxCell>
        <mxCell id="fDs1axNgyrMjnGepGOiw-37" value="matrizProdutos[i][0]" style="html=1;strokeWidth=2;shape=manualInput;whiteSpace=wrap;rounded=1;size=26;arcSize=11;" vertex="1" parent="1">
          <mxGeometry x="305" y="-1850" width="100" height="70" as="geometry" />
        </mxCell>
        <mxCell id="fDs1axNgyrMjnGepGOiw-38" value="Informe a quantidade em estoque do &quot;, i+1, &quot;° produto:&amp;nbsp;" style="strokeWidth=2;html=1;shape=mxgraph.flowchart.display;whiteSpace=wrap;" vertex="1" parent="1">
          <mxGeometry x="285" y="-1744" width="130" height="60" as="geometry" />
        </mxCell>
        <mxCell id="fDs1axNgyrMjnGepGOiw-40" style="edgeStyle=orthogonalEdgeStyle;rounded=0;orthogonalLoop=1;jettySize=auto;html=1;exitX=0.5;exitY=1;exitDx=0;exitDy=0;entryX=0.545;entryY=-0.001;entryDx=0;entryDy=0;entryPerimeter=0;" edge="1" parent="1" source="fDs1axNgyrMjnGepGOiw-37" target="fDs1axNgyrMjnGepGOiw-38">
          <mxGeometry relative="1" as="geometry" />
        </mxCell>
        <mxCell id="fDs1axNgyrMjnGepGOiw-44" style="edgeStyle=orthogonalEdgeStyle;rounded=0;orthogonalLoop=1;jettySize=auto;html=1;exitX=0.5;exitY=1;exitDx=0;exitDy=0;entryX=0.5;entryY=0;entryDx=0;entryDy=0;" edge="1" parent="1" source="fDs1axNgyrMjnGepGOiw-41">
          <mxGeometry relative="1" as="geometry">
            <mxPoint x="350" y="-1560" as="targetPoint" />
          </mxGeometry>
        </mxCell>
        <mxCell id="fDs1axNgyrMjnGepGOiw-41" value="matrizProdutos[i][1]" style="html=1;strokeWidth=2;shape=manualInput;whiteSpace=wrap;rounded=1;size=26;arcSize=11;" vertex="1" parent="1">
          <mxGeometry x="300" y="-1660" width="100" height="60" as="geometry" />
        </mxCell>
        <mxCell id="fDs1axNgyrMjnGepGOiw-42" style="edgeStyle=orthogonalEdgeStyle;rounded=0;orthogonalLoop=1;jettySize=auto;html=1;exitX=0.5;exitY=1;exitDx=0;exitDy=0;exitPerimeter=0;entryX=0.509;entryY=0.216;entryDx=0;entryDy=0;entryPerimeter=0;" edge="1" parent="1" source="fDs1axNgyrMjnGepGOiw-38" target="fDs1axNgyrMjnGepGOiw-41">
          <mxGeometry relative="1" as="geometry" />
        </mxCell>
        <mxCell id="fDs1axNgyrMjnGepGOiw-50" style="edgeStyle=orthogonalEdgeStyle;rounded=0;orthogonalLoop=1;jettySize=auto;html=1;" edge="1" parent="1" source="fDs1axNgyrMjnGepGOiw-35">
          <mxGeometry relative="1" as="geometry">
            <mxPoint x="355" y="-1840" as="targetPoint" />
          </mxGeometry>
        </mxCell>
        <mxCell id="fDs1axNgyrMjnGepGOiw-51" value="" style="ellipse;whiteSpace=wrap;html=1;aspect=fixed;" vertex="1" parent="1">
          <mxGeometry x="330" y="-1560" width="45" height="45" as="geometry" />
        </mxCell>
        <mxCell id="fDs1axNgyrMjnGepGOiw-56" style="edgeStyle=orthogonalEdgeStyle;rounded=0;orthogonalLoop=1;jettySize=auto;html=1;exitX=0.067;exitY=0.748;exitDx=0;exitDy=0;exitPerimeter=0;" edge="1" parent="1" source="fDs1axNgyrMjnGepGOiw-51" target="fDs1axNgyrMjnGepGOiw-33">
          <mxGeometry relative="1" as="geometry">
            <mxPoint x="330" y="-1527" as="sourcePoint" />
            <mxPoint x="275.03999999999996" y="-1990" as="targetPoint" />
            <Array as="points">
              <mxPoint x="265" y="-1526" />
              <mxPoint x="265" y="-1990" />
            </Array>
          </mxGeometry>
        </mxCell>
        <mxCell id="F6pTabbAg8eNlp75tk1d-5" style="edgeStyle=orthogonalEdgeStyle;rounded=0;orthogonalLoop=1;jettySize=auto;html=1;exitX=0.5;exitY=1;exitDx=0;exitDy=0;" edge="1" parent="1">
          <mxGeometry relative="1" as="geometry">
            <mxPoint x="355" y="-1410" as="sourcePoint" />
            <mxPoint x="355" y="-1410" as="targetPoint" />
          </mxGeometry>
        </mxCell>
        <mxCell id="F6pTabbAg8eNlp75tk1d-10" style="edgeStyle=orthogonalEdgeStyle;rounded=0;orthogonalLoop=1;jettySize=auto;html=1;exitX=0.5;exitY=1;exitDx=0;exitDy=0;exitPerimeter=0;" edge="1" parent="1">
          <mxGeometry relative="1" as="geometry">
            <mxPoint x="349.62" y="-1440" as="sourcePoint" />
            <mxPoint x="349.62" y="-1390" as="targetPoint" />
          </mxGeometry>
        </mxCell>
        <mxCell id="F6pTabbAg8eNlp75tk1d-12" value="Escolha uma das opções abaixo:" style="strokeWidth=2;html=1;shape=mxgraph.flowchart.display;whiteSpace=wrap;" vertex="1" parent="1">
          <mxGeometry x="280" y="-1490" width="120" height="60" as="geometry" />
        </mxCell>
        <mxCell id="F6pTabbAg8eNlp75tk1d-19" style="edgeStyle=orthogonalEdgeStyle;rounded=0;orthogonalLoop=1;jettySize=auto;html=1;exitX=0.5;exitY=1;exitDx=0;exitDy=0;entryX=0.5;entryY=0;entryDx=0;entryDy=0;" edge="1" parent="1" source="F6pTabbAg8eNlp75tk1d-16" target="F6pTabbAg8eNlp75tk1d-17">
          <mxGeometry relative="1" as="geometry" />
        </mxCell>
        <mxCell id="F6pTabbAg8eNlp75tk1d-16" value="opcao" style="html=1;strokeWidth=2;shape=manualInput;whiteSpace=wrap;rounded=1;size=26;arcSize=11;" vertex="1" parent="1">
          <mxGeometry x="290" y="-1400" width="100" height="50" as="geometry" />
        </mxCell>
        <mxCell id="F6pTabbAg8eNlp75tk1d-21" style="edgeStyle=orthogonalEdgeStyle;rounded=0;orthogonalLoop=1;jettySize=auto;html=1;exitX=0.5;exitY=1;exitDx=0;exitDy=0;" edge="1" parent="1" source="F6pTabbAg8eNlp75tk1d-17" target="F6pTabbAg8eNlp75tk1d-20">
          <mxGeometry relative="1" as="geometry" />
        </mxCell>
        <mxCell id="F6pTabbAg8eNlp75tk1d-24" value="Não" style="edgeLabel;html=1;align=center;verticalAlign=middle;resizable=0;points=[];" connectable="0" vertex="1" parent="F6pTabbAg8eNlp75tk1d-21">
          <mxGeometry x="-0.1723" y="2" relative="1" as="geometry">
            <mxPoint as="offset" />
          </mxGeometry>
        </mxCell>
        <mxCell id="F6pTabbAg8eNlp75tk1d-30" style="edgeStyle=orthogonalEdgeStyle;rounded=0;orthogonalLoop=1;jettySize=auto;html=1;exitX=1;exitY=0.5;exitDx=0;exitDy=0;" edge="1" parent="1" source="F6pTabbAg8eNlp75tk1d-17" target="F6pTabbAg8eNlp75tk1d-29">
          <mxGeometry relative="1" as="geometry" />
        </mxCell>
        <mxCell id="F6pTabbAg8eNlp75tk1d-31" value="Sim" style="edgeLabel;html=1;align=center;verticalAlign=middle;resizable=0;points=[];" connectable="0" vertex="1" parent="F6pTabbAg8eNlp75tk1d-30">
          <mxGeometry x="-0.1652" y="1" relative="1" as="geometry">
            <mxPoint as="offset" />
          </mxGeometry>
        </mxCell>
        <mxCell id="F6pTabbAg8eNlp75tk1d-17" value="opcao=1" style="rhombus;whiteSpace=wrap;html=1;" vertex="1" parent="1">
          <mxGeometry x="300" y="-1210" width="80" height="80" as="geometry" />
        </mxCell>
        <mxCell id="F6pTabbAg8eNlp75tk1d-23" style="edgeStyle=orthogonalEdgeStyle;rounded=0;orthogonalLoop=1;jettySize=auto;html=1;exitX=0.5;exitY=1;exitDx=0;exitDy=0;entryX=0.5;entryY=0;entryDx=0;entryDy=0;" edge="1" parent="1" source="F6pTabbAg8eNlp75tk1d-20" target="F6pTabbAg8eNlp75tk1d-22">
          <mxGeometry relative="1" as="geometry" />
        </mxCell>
        <mxCell id="F6pTabbAg8eNlp75tk1d-25" value="Não" style="edgeLabel;html=1;align=center;verticalAlign=middle;resizable=0;points=[];" connectable="0" vertex="1" parent="F6pTabbAg8eNlp75tk1d-23">
          <mxGeometry x="-0.1962" y="2" relative="1" as="geometry">
            <mxPoint as="offset" />
          </mxGeometry>
        </mxCell>
        <mxCell id="F6pTabbAg8eNlp75tk1d-33" style="edgeStyle=orthogonalEdgeStyle;rounded=0;orthogonalLoop=1;jettySize=auto;html=1;exitX=1;exitY=0.5;exitDx=0;exitDy=0;entryX=0;entryY=0.5;entryDx=0;entryDy=0;entryPerimeter=0;" edge="1" parent="1" source="F6pTabbAg8eNlp75tk1d-20" target="F6pTabbAg8eNlp75tk1d-34">
          <mxGeometry relative="1" as="geometry">
            <mxPoint x="430" y="-1140" as="targetPoint" />
          </mxGeometry>
        </mxCell>
        <mxCell id="F6pTabbAg8eNlp75tk1d-35" value="Sim" style="edgeLabel;html=1;align=center;verticalAlign=middle;resizable=0;points=[];" connectable="0" vertex="1" parent="F6pTabbAg8eNlp75tk1d-33">
          <mxGeometry x="-0.1311" relative="1" as="geometry">
            <mxPoint as="offset" />
          </mxGeometry>
        </mxCell>
        <mxCell id="F6pTabbAg8eNlp75tk1d-20" value="opcao=2" style="rhombus;whiteSpace=wrap;html=1;" vertex="1" parent="1">
          <mxGeometry x="300" y="-960" width="80" height="80" as="geometry" />
        </mxCell>
        <mxCell id="F6pTabbAg8eNlp75tk1d-38" style="edgeStyle=orthogonalEdgeStyle;rounded=0;orthogonalLoop=1;jettySize=auto;html=1;exitX=0.5;exitY=1;exitDx=0;exitDy=0;" edge="1" parent="1" source="F6pTabbAg8eNlp75tk1d-22" target="F6pTabbAg8eNlp75tk1d-26">
          <mxGeometry relative="1" as="geometry" />
        </mxCell>
        <mxCell id="F6pTabbAg8eNlp75tk1d-194" value="Não" style="edgeLabel;html=1;align=center;verticalAlign=middle;resizable=0;points=[];" connectable="0" vertex="1" parent="F6pTabbAg8eNlp75tk1d-38">
          <mxGeometry x="-0.0407" relative="1" as="geometry">
            <mxPoint as="offset" />
          </mxGeometry>
        </mxCell>
        <mxCell id="F6pTabbAg8eNlp75tk1d-124" style="edgeStyle=orthogonalEdgeStyle;rounded=0;orthogonalLoop=1;jettySize=auto;html=1;exitX=1;exitY=0.5;exitDx=0;exitDy=0;" edge="1" parent="1" source="F6pTabbAg8eNlp75tk1d-22">
          <mxGeometry relative="1" as="geometry">
            <mxPoint x="490" y="-670.391304347826" as="targetPoint" />
          </mxGeometry>
        </mxCell>
        <mxCell id="F6pTabbAg8eNlp75tk1d-126" value="Sim" style="edgeLabel;html=1;align=center;verticalAlign=middle;resizable=0;points=[];" connectable="0" vertex="1" parent="F6pTabbAg8eNlp75tk1d-124">
          <mxGeometry x="-0.0222" y="2" relative="1" as="geometry">
            <mxPoint as="offset" />
          </mxGeometry>
        </mxCell>
        <mxCell id="F6pTabbAg8eNlp75tk1d-22" value="opcao=0" style="rhombus;whiteSpace=wrap;html=1;" vertex="1" parent="1">
          <mxGeometry x="300" y="-710" width="80" height="80" as="geometry" />
        </mxCell>
        <mxCell id="F6pTabbAg8eNlp75tk1d-197" style="edgeStyle=orthogonalEdgeStyle;rounded=0;orthogonalLoop=1;jettySize=auto;html=1;entryX=0;entryY=0.5;entryDx=0;entryDy=0;entryPerimeter=0;" edge="1" parent="1" source="F6pTabbAg8eNlp75tk1d-26" target="F6pTabbAg8eNlp75tk1d-12">
          <mxGeometry relative="1" as="geometry">
            <mxPoint x="260" y="-1450" as="targetPoint" />
            <Array as="points">
              <mxPoint x="260" y="-450" />
              <mxPoint x="260" y="-1460" />
            </Array>
          </mxGeometry>
        </mxCell>
        <mxCell id="F6pTabbAg8eNlp75tk1d-26" value="Opção invalida! Tente novamente" style="strokeWidth=2;html=1;shape=mxgraph.flowchart.display;whiteSpace=wrap;" vertex="1" parent="1">
          <mxGeometry x="290" y="-480" width="100" height="60" as="geometry" />
        </mxCell>
        <mxCell id="F6pTabbAg8eNlp75tk1d-42" style="edgeStyle=orthogonalEdgeStyle;rounded=0;orthogonalLoop=1;jettySize=auto;html=1;exitX=1;exitY=0.5;exitDx=0;exitDy=0;exitPerimeter=0;" edge="1" parent="1">
          <mxGeometry relative="1" as="geometry">
            <mxPoint x="670" y="-1174" as="sourcePoint" />
            <mxPoint x="860" y="-2240" as="targetPoint" />
            <Array as="points">
              <mxPoint x="730" y="-1174" />
              <mxPoint x="730" y="-2254" />
              <mxPoint x="860" y="-2254" />
              <mxPoint x="860" y="-2240" />
            </Array>
          </mxGeometry>
        </mxCell>
        <mxCell id="F6pTabbAg8eNlp75tk1d-29" value="Lista de produtos com estoque" style="strokeWidth=2;html=1;shape=mxgraph.flowchart.display;whiteSpace=wrap;" vertex="1" parent="1">
          <mxGeometry x="500" y="-1200" width="170" height="60" as="geometry" />
        </mxCell>
        <mxCell id="F6pTabbAg8eNlp75tk1d-47" style="edgeStyle=orthogonalEdgeStyle;rounded=0;orthogonalLoop=1;jettySize=auto;html=1;exitX=0.5;exitY=1;exitDx=0;exitDy=0;entryX=0.5;entryY=0;entryDx=0;entryDy=0;" edge="1" parent="1" source="F6pTabbAg8eNlp75tk1d-32" target="F6pTabbAg8eNlp75tk1d-43">
          <mxGeometry relative="1" as="geometry" />
        </mxCell>
        <mxCell id="F6pTabbAg8eNlp75tk1d-189" style="edgeStyle=orthogonalEdgeStyle;rounded=0;orthogonalLoop=1;jettySize=auto;html=1;exitX=1;exitY=0.5;exitDx=0;exitDy=0;entryX=0.335;entryY=0.348;entryDx=0;entryDy=0;entryPerimeter=0;" edge="1" parent="1" source="F6pTabbAg8eNlp75tk1d-32" target="F6pTabbAg8eNlp75tk1d-53">
          <mxGeometry relative="1" as="geometry">
            <mxPoint x="1270" y="-2220" as="targetPoint" />
          </mxGeometry>
        </mxCell>
        <mxCell id="F6pTabbAg8eNlp75tk1d-32" value="i=0; i&amp;lt;LINHA; i" style="shape=hexagon;perimeter=hexagonPerimeter2;whiteSpace=wrap;html=1;fixedSize=1;" vertex="1" parent="1">
          <mxGeometry x="820" y="-2240" width="120" height="40" as="geometry" />
        </mxCell>
        <mxCell id="F6pTabbAg8eNlp75tk1d-223" style="edgeStyle=orthogonalEdgeStyle;rounded=0;orthogonalLoop=1;jettySize=auto;html=1;exitX=1;exitY=0.5;exitDx=0;exitDy=0;exitPerimeter=0;entryX=0.375;entryY=0;entryDx=0;entryDy=0;" edge="1" parent="1" source="F6pTabbAg8eNlp75tk1d-34" target="F6pTabbAg8eNlp75tk1d-203">
          <mxGeometry relative="1" as="geometry">
            <mxPoint x="780" y="-1880" as="targetPoint" />
          </mxGeometry>
        </mxCell>
        <mxCell id="F6pTabbAg8eNlp75tk1d-34" value="Não temos produtos com estoque!" style="strokeWidth=2;html=1;shape=mxgraph.flowchart.display;whiteSpace=wrap;" vertex="1" parent="1">
          <mxGeometry x="500" y="-950" width="170" height="60" as="geometry" />
        </mxCell>
        <mxCell id="F6pTabbAg8eNlp75tk1d-125" style="edgeStyle=orthogonalEdgeStyle;rounded=0;orthogonalLoop=1;jettySize=auto;html=1;exitX=1;exitY=0.5;exitDx=0;exitDy=0;exitPerimeter=0;" edge="1" parent="1" source="F6pTabbAg8eNlp75tk1d-36">
          <mxGeometry relative="1" as="geometry">
            <mxPoint x="740" y="-670.391304347826" as="targetPoint" />
          </mxGeometry>
        </mxCell>
        <mxCell id="F6pTabbAg8eNlp75tk1d-36" value="Deseja sair do programa?\n\nDigite s para sair ou n para continuar no programa." style="strokeWidth=2;html=1;shape=mxgraph.flowchart.display;whiteSpace=wrap;" vertex="1" parent="1">
          <mxGeometry x="490" y="-705" width="180" height="70" as="geometry" />
        </mxCell>
        <mxCell id="F6pTabbAg8eNlp75tk1d-43" value="ti.cadeia_para_inteiro&lt;div&gt;(matrizProdutos[i][1], 10) &amp;gt; 0&lt;/div&gt;" style="rhombus;whiteSpace=wrap;html=1;" vertex="1" parent="1">
          <mxGeometry x="802.5" y="-2062.5" width="155" height="130" as="geometry" />
        </mxCell>
        <mxCell id="F6pTabbAg8eNlp75tk1d-190" value="" style="edgeStyle=orthogonalEdgeStyle;rounded=0;orthogonalLoop=1;jettySize=auto;html=1;" edge="1" parent="1" source="F6pTabbAg8eNlp75tk1d-46" target="F6pTabbAg8eNlp75tk1d-179">
          <mxGeometry relative="1" as="geometry" />
        </mxCell>
        <mxCell id="F6pTabbAg8eNlp75tk1d-46" value="matrizProdutos[i][0], &quot;\t&quot;, matrizProdutos[i][1]" style="strokeWidth=2;html=1;shape=mxgraph.flowchart.display;whiteSpace=wrap;" vertex="1" parent="1">
          <mxGeometry x="1039.5" y="-2027.5" width="120" height="60" as="geometry" />
        </mxCell>
        <mxCell id="F6pTabbAg8eNlp75tk1d-52" style="edgeStyle=orthogonalEdgeStyle;rounded=0;orthogonalLoop=1;jettySize=auto;html=1;exitX=1;exitY=0.5;exitDx=0;exitDy=0;entryX=0;entryY=0.5;entryDx=0;entryDy=0;entryPerimeter=0;" edge="1" parent="1" source="F6pTabbAg8eNlp75tk1d-43" target="F6pTabbAg8eNlp75tk1d-46">
          <mxGeometry relative="1" as="geometry" />
        </mxCell>
        <mxCell id="F6pTabbAg8eNlp75tk1d-193" value="Sim" style="edgeLabel;html=1;align=center;verticalAlign=middle;resizable=0;points=[];" connectable="0" vertex="1" parent="F6pTabbAg8eNlp75tk1d-52">
          <mxGeometry x="-0.2205" relative="1" as="geometry">
            <mxPoint as="offset" />
          </mxGeometry>
        </mxCell>
        <mxCell id="F6pTabbAg8eNlp75tk1d-187" style="edgeStyle=orthogonalEdgeStyle;rounded=0;orthogonalLoop=1;jettySize=auto;html=1;entryX=0;entryY=0.5;entryDx=0;entryDy=0;" edge="1" parent="1" source="F6pTabbAg8eNlp75tk1d-53" target="F6pTabbAg8eNlp75tk1d-58">
          <mxGeometry relative="1" as="geometry" />
        </mxCell>
        <mxCell id="F6pTabbAg8eNlp75tk1d-53" value="contador" style="html=1;strokeWidth=2;shape=manualInput;whiteSpace=wrap;rounded=1;size=26;arcSize=11;" vertex="1" parent="1">
          <mxGeometry x="1230" y="-2035" width="100" height="50" as="geometry" />
        </mxCell>
        <mxCell id="F6pTabbAg8eNlp75tk1d-93" style="edgeStyle=orthogonalEdgeStyle;rounded=0;orthogonalLoop=1;jettySize=auto;html=1;entryX=1;entryY=0.5;entryDx=0;entryDy=0;entryPerimeter=0;exitX=0.59;exitY=0.033;exitDx=0;exitDy=0;exitPerimeter=0;" edge="1" parent="1" source="F6pTabbAg8eNlp75tk1d-169">
          <mxGeometry relative="1" as="geometry">
            <mxPoint x="400" y="-1450.0000000000002" as="targetPoint" />
            <mxPoint x="1450" y="-2160" as="sourcePoint" />
            <Array as="points">
              <mxPoint x="1661" y="-2043" />
              <mxPoint x="1660" y="-2260" />
              <mxPoint x="620" y="-2260" />
              <mxPoint x="620" y="-1450" />
            </Array>
          </mxGeometry>
        </mxCell>
        <mxCell id="F6pTabbAg8eNlp75tk1d-174" style="edgeStyle=orthogonalEdgeStyle;rounded=0;orthogonalLoop=1;jettySize=auto;html=1;exitX=0.5;exitY=1;exitDx=0;exitDy=0;entryX=1;entryY=0.5;entryDx=0;entryDy=0;entryPerimeter=0;" edge="1" parent="1" source="F6pTabbAg8eNlp75tk1d-58" target="F6pTabbAg8eNlp75tk1d-12">
          <mxGeometry relative="1" as="geometry">
            <mxPoint x="520" y="-2280" as="targetPoint" />
            <Array as="points">
              <mxPoint x="1478" y="-1947" />
              <mxPoint x="1740" y="-1947" />
              <mxPoint x="1740" y="-2009" />
              <mxPoint x="1980" y="-2009" />
              <mxPoint x="1980" y="-2300" />
              <mxPoint x="520" y="-2300" />
              <mxPoint x="520" y="-1450" />
              <mxPoint x="400" y="-1450" />
            </Array>
          </mxGeometry>
        </mxCell>
        <mxCell id="F6pTabbAg8eNlp75tk1d-191" value="Não" style="edgeLabel;html=1;align=center;verticalAlign=middle;resizable=0;points=[];" connectable="0" vertex="1" parent="F6pTabbAg8eNlp75tk1d-174">
          <mxGeometry x="-0.9311" y="2" relative="1" as="geometry">
            <mxPoint as="offset" />
          </mxGeometry>
        </mxCell>
        <mxCell id="F6pTabbAg8eNlp75tk1d-58" value="contador==0" style="rhombus;whiteSpace=wrap;html=1;" vertex="1" parent="1">
          <mxGeometry x="1427.5" y="-2057.5" width="100" height="95" as="geometry" />
        </mxCell>
        <mxCell id="F6pTabbAg8eNlp75tk1d-137" style="edgeStyle=orthogonalEdgeStyle;rounded=0;orthogonalLoop=1;jettySize=auto;html=1;exitX=1;exitY=0.5;exitDx=0;exitDy=0;entryX=0;entryY=0.5;entryDx=0;entryDy=0;" edge="1" parent="1" source="F6pTabbAg8eNlp75tk1d-121" target="F6pTabbAg8eNlp75tk1d-127">
          <mxGeometry relative="1" as="geometry" />
        </mxCell>
        <mxCell id="F6pTabbAg8eNlp75tk1d-121" value="op" style="html=1;strokeWidth=2;shape=manualInput;whiteSpace=wrap;rounded=1;size=26;arcSize=11;" vertex="1" parent="1">
          <mxGeometry x="740" y="-705" width="100" height="50" as="geometry" />
        </mxCell>
        <mxCell id="F6pTabbAg8eNlp75tk1d-138" style="edgeStyle=orthogonalEdgeStyle;rounded=0;orthogonalLoop=1;jettySize=auto;html=1;exitX=0.5;exitY=1;exitDx=0;exitDy=0;" edge="1" parent="1" source="F6pTabbAg8eNlp75tk1d-127">
          <mxGeometry relative="1" as="geometry">
            <mxPoint x="1057" y="-480" as="targetPoint" />
            <Array as="points">
              <mxPoint x="1062" y="-480" />
            </Array>
          </mxGeometry>
        </mxCell>
        <mxCell id="F6pTabbAg8eNlp75tk1d-141" value="Não" style="edgeLabel;html=1;align=center;verticalAlign=middle;resizable=0;points=[];" connectable="0" vertex="1" parent="F6pTabbAg8eNlp75tk1d-138">
          <mxGeometry x="-0.0944" y="4" relative="1" as="geometry">
            <mxPoint as="offset" />
          </mxGeometry>
        </mxCell>
        <mxCell id="F6pTabbAg8eNlp75tk1d-195" style="edgeStyle=orthogonalEdgeStyle;rounded=0;orthogonalLoop=1;jettySize=auto;html=1;exitX=1;exitY=0.5;exitDx=0;exitDy=0;entryX=0;entryY=0.5;entryDx=0;entryDy=0;entryPerimeter=0;" edge="1" parent="1" source="F6pTabbAg8eNlp75tk1d-127" target="F6pTabbAg8eNlp75tk1d-12">
          <mxGeometry relative="1" as="geometry">
            <mxPoint x="130" y="-1070" as="targetPoint" />
            <Array as="points">
              <mxPoint x="1160" y="-680" />
              <mxPoint x="1160" y="-300" />
              <mxPoint x="220" y="-300" />
              <mxPoint x="220" y="-1460" />
            </Array>
          </mxGeometry>
        </mxCell>
        <mxCell id="F6pTabbAg8eNlp75tk1d-196" value="Sim" style="edgeLabel;html=1;align=center;verticalAlign=middle;resizable=0;points=[];" connectable="0" vertex="1" parent="F6pTabbAg8eNlp75tk1d-195">
          <mxGeometry x="-0.9029" y="2" relative="1" as="geometry">
            <mxPoint as="offset" />
          </mxGeometry>
        </mxCell>
        <mxCell id="F6pTabbAg8eNlp75tk1d-127" value="(ti.caracter_para_logico(op) == falso)" style="rhombus;whiteSpace=wrap;html=1;" vertex="1" parent="1">
          <mxGeometry x="985" y="-745" width="155" height="130" as="geometry" />
        </mxCell>
        <mxCell id="F6pTabbAg8eNlp75tk1d-142" value="Volte sempre!" style="strokeWidth=2;html=1;shape=mxgraph.flowchart.display;whiteSpace=wrap;" vertex="1" parent="1">
          <mxGeometry x="960" y="-480" width="180" height="70" as="geometry" />
        </mxCell>
        <mxCell id="F6pTabbAg8eNlp75tk1d-150" style="edgeStyle=orthogonalEdgeStyle;rounded=0;orthogonalLoop=1;jettySize=auto;html=1;exitX=1;exitY=0.5;exitDx=0;exitDy=0;entryX=1;entryY=0.5;entryDx=0;entryDy=0;entryPerimeter=0;" edge="1" parent="1" source="fDs1axNgyrMjnGepGOiw-33" target="F6pTabbAg8eNlp75tk1d-12">
          <mxGeometry relative="1" as="geometry">
            <Array as="points">
              <mxPoint x="440" y="-1980" />
              <mxPoint x="440" y="-1460" />
            </Array>
          </mxGeometry>
        </mxCell>
        <mxCell id="F6pTabbAg8eNlp75tk1d-169" value="Não temos produtos em estoque!" style="strokeWidth=2;html=1;shape=mxgraph.flowchart.display;whiteSpace=wrap;" vertex="1" parent="1">
          <mxGeometry x="1590" y="-2040" width="120" height="60" as="geometry" />
        </mxCell>
        <mxCell id="F6pTabbAg8eNlp75tk1d-184" style="edgeStyle=orthogonalEdgeStyle;rounded=0;orthogonalLoop=1;jettySize=auto;html=1;exitX=0.5;exitY=1;exitDx=0;exitDy=0;entryX=0;entryY=0.5;entryDx=0;entryDy=0;" edge="1" parent="1" source="F6pTabbAg8eNlp75tk1d-179" target="F6pTabbAg8eNlp75tk1d-32">
          <mxGeometry relative="1" as="geometry">
            <mxPoint x="1380" y="-1800" as="targetPoint" />
            <Array as="points">
              <mxPoint x="1200" y="-1890" />
              <mxPoint x="790" y="-1890" />
              <mxPoint x="790" y="-2220" />
            </Array>
          </mxGeometry>
        </mxCell>
        <mxCell id="F6pTabbAg8eNlp75tk1d-186" value="" style="edgeStyle=orthogonalEdgeStyle;rounded=0;orthogonalLoop=1;jettySize=auto;html=1;exitX=1;exitY=0.5;exitDx=0;exitDy=0;exitPerimeter=0;entryX=0;entryY=0.75;entryDx=0;entryDy=0;" edge="1" parent="1" source="F6pTabbAg8eNlp75tk1d-46" target="F6pTabbAg8eNlp75tk1d-179">
          <mxGeometry relative="1" as="geometry">
            <mxPoint x="1160" y="-1997" as="sourcePoint" />
            <mxPoint x="1230" y="-1997" as="targetPoint" />
          </mxGeometry>
        </mxCell>
        <mxCell id="F6pTabbAg8eNlp75tk1d-179" value="" style="ellipse;whiteSpace=wrap;html=1;aspect=fixed;" vertex="1" parent="1">
          <mxGeometry x="1180" y="-2017.5" width="40" height="40" as="geometry" />
        </mxCell>
        <mxCell id="F6pTabbAg8eNlp75tk1d-198" style="edgeStyle=orthogonalEdgeStyle;rounded=0;orthogonalLoop=1;jettySize=auto;html=1;entryX=0;entryY=0.5;entryDx=0;entryDy=0;entryPerimeter=0;" edge="1" parent="1" source="F6pTabbAg8eNlp75tk1d-58" target="F6pTabbAg8eNlp75tk1d-169">
          <mxGeometry relative="1" as="geometry" />
        </mxCell>
        <mxCell id="F6pTabbAg8eNlp75tk1d-199" value="Sim" style="edgeLabel;html=1;align=center;verticalAlign=middle;resizable=0;points=[];" connectable="0" vertex="1" parent="F6pTabbAg8eNlp75tk1d-198">
          <mxGeometry x="-0.2032" y="-2" relative="1" as="geometry">
            <mxPoint as="offset" />
          </mxGeometry>
        </mxCell>
        <mxCell id="F6pTabbAg8eNlp75tk1d-201" style="edgeStyle=orthogonalEdgeStyle;rounded=0;orthogonalLoop=1;jettySize=auto;html=1;exitX=0.5;exitY=1;exitDx=0;exitDy=0;entryX=0.5;entryY=0;entryDx=0;entryDy=0;" edge="1" parent="1" source="F6pTabbAg8eNlp75tk1d-203" target="F6pTabbAg8eNlp75tk1d-204">
          <mxGeometry relative="1" as="geometry" />
        </mxCell>
        <mxCell id="F6pTabbAg8eNlp75tk1d-202" style="edgeStyle=orthogonalEdgeStyle;rounded=0;orthogonalLoop=1;jettySize=auto;html=1;exitX=1;exitY=0.5;exitDx=0;exitDy=0;entryX=0.335;entryY=0.348;entryDx=0;entryDy=0;entryPerimeter=0;" edge="1" parent="1" source="F6pTabbAg8eNlp75tk1d-203" target="F6pTabbAg8eNlp75tk1d-210">
          <mxGeometry relative="1" as="geometry">
            <mxPoint x="1280" y="-1845.09" as="targetPoint" />
          </mxGeometry>
        </mxCell>
        <mxCell id="F6pTabbAg8eNlp75tk1d-203" value="i=0; i&amp;lt;LINHA; i" style="shape=hexagon;perimeter=hexagonPerimeter2;whiteSpace=wrap;html=1;fixedSize=1;" vertex="1" parent="1">
          <mxGeometry x="830" y="-1865.09" width="120" height="40" as="geometry" />
        </mxCell>
        <mxCell id="F6pTabbAg8eNlp75tk1d-204" value="ti.cadeia_para_inteiro&lt;div&gt;(matrizProdutos[i][1], 10) &amp;lt;= 0&lt;/div&gt;" style="rhombus;whiteSpace=wrap;html=1;" vertex="1" parent="1">
          <mxGeometry x="810" y="-1687.5900000000001" width="157.5" height="130" as="geometry" />
        </mxCell>
        <mxCell id="F6pTabbAg8eNlp75tk1d-205" value="" style="edgeStyle=orthogonalEdgeStyle;rounded=0;orthogonalLoop=1;jettySize=auto;html=1;" edge="1" parent="1" source="F6pTabbAg8eNlp75tk1d-206" target="F6pTabbAg8eNlp75tk1d-216">
          <mxGeometry relative="1" as="geometry" />
        </mxCell>
        <mxCell id="F6pTabbAg8eNlp75tk1d-206" value="matrizProdutos[i][0], &quot;\t&quot;, matrizProdutos[i][1]" style="strokeWidth=2;html=1;shape=mxgraph.flowchart.display;whiteSpace=wrap;" vertex="1" parent="1">
          <mxGeometry x="1049.5" y="-1652.59" width="120" height="60" as="geometry" />
        </mxCell>
        <mxCell id="F6pTabbAg8eNlp75tk1d-207" style="edgeStyle=orthogonalEdgeStyle;rounded=0;orthogonalLoop=1;jettySize=auto;html=1;exitX=1;exitY=0.5;exitDx=0;exitDy=0;entryX=0;entryY=0.5;entryDx=0;entryDy=0;entryPerimeter=0;" edge="1" parent="1" source="F6pTabbAg8eNlp75tk1d-204" target="F6pTabbAg8eNlp75tk1d-206">
          <mxGeometry relative="1" as="geometry" />
        </mxCell>
        <mxCell id="F6pTabbAg8eNlp75tk1d-208" value="Sim" style="edgeLabel;html=1;align=center;verticalAlign=middle;resizable=0;points=[];" connectable="0" vertex="1" parent="F6pTabbAg8eNlp75tk1d-207">
          <mxGeometry x="-0.2205" relative="1" as="geometry">
            <mxPoint as="offset" />
          </mxGeometry>
        </mxCell>
        <mxCell id="F6pTabbAg8eNlp75tk1d-209" style="edgeStyle=orthogonalEdgeStyle;rounded=0;orthogonalLoop=1;jettySize=auto;html=1;entryX=0;entryY=0.5;entryDx=0;entryDy=0;" edge="1" parent="1" source="F6pTabbAg8eNlp75tk1d-210" target="F6pTabbAg8eNlp75tk1d-212">
          <mxGeometry relative="1" as="geometry" />
        </mxCell>
        <mxCell id="F6pTabbAg8eNlp75tk1d-210" value="contador" style="html=1;strokeWidth=2;shape=manualInput;whiteSpace=wrap;rounded=1;size=26;arcSize=11;" vertex="1" parent="1">
          <mxGeometry x="1240" y="-1660.09" width="100" height="50" as="geometry" />
        </mxCell>
        <mxCell id="F6pTabbAg8eNlp75tk1d-221" style="edgeStyle=orthogonalEdgeStyle;rounded=0;orthogonalLoop=1;jettySize=auto;html=1;" edge="1" parent="1" source="F6pTabbAg8eNlp75tk1d-212">
          <mxGeometry relative="1" as="geometry">
            <mxPoint x="410" y="-1454.1819069602273" as="targetPoint" />
            <Array as="points">
              <mxPoint x="1488" y="-1490" />
              <mxPoint x="2150" y="-1490" />
              <mxPoint x="2150" y="-2320" />
              <mxPoint x="450" y="-2320" />
              <mxPoint x="450" y="-1454" />
            </Array>
          </mxGeometry>
        </mxCell>
        <mxCell id="F6pTabbAg8eNlp75tk1d-222" value="Não" style="edgeLabel;html=1;align=center;verticalAlign=middle;resizable=0;points=[];" connectable="0" vertex="1" parent="F6pTabbAg8eNlp75tk1d-221">
          <mxGeometry x="-0.8879" y="3" relative="1" as="geometry">
            <mxPoint as="offset" />
          </mxGeometry>
        </mxCell>
        <mxCell id="F6pTabbAg8eNlp75tk1d-212" value="contador==0" style="rhombus;whiteSpace=wrap;html=1;" vertex="1" parent="1">
          <mxGeometry x="1437.5" y="-1682.59" width="100" height="95" as="geometry" />
        </mxCell>
        <mxCell id="F6pTabbAg8eNlp75tk1d-213" value="Não temos produtos em estoque!" style="strokeWidth=2;html=1;shape=mxgraph.flowchart.display;whiteSpace=wrap;" vertex="1" parent="1">
          <mxGeometry x="1600" y="-1665.09" width="120" height="60" as="geometry" />
        </mxCell>
        <mxCell id="F6pTabbAg8eNlp75tk1d-214" style="edgeStyle=orthogonalEdgeStyle;rounded=0;orthogonalLoop=1;jettySize=auto;html=1;exitX=0.5;exitY=1;exitDx=0;exitDy=0;entryX=0;entryY=0.5;entryDx=0;entryDy=0;" edge="1" parent="1" source="F6pTabbAg8eNlp75tk1d-216" target="F6pTabbAg8eNlp75tk1d-203">
          <mxGeometry relative="1" as="geometry">
            <mxPoint x="1390" y="-1425.09" as="targetPoint" />
            <Array as="points">
              <mxPoint x="1210" y="-1515.09" />
              <mxPoint x="800" y="-1515.09" />
              <mxPoint x="800" y="-1845.09" />
            </Array>
          </mxGeometry>
        </mxCell>
        <mxCell id="F6pTabbAg8eNlp75tk1d-215" value="" style="edgeStyle=orthogonalEdgeStyle;rounded=0;orthogonalLoop=1;jettySize=auto;html=1;exitX=1;exitY=0.5;exitDx=0;exitDy=0;exitPerimeter=0;entryX=0;entryY=0.75;entryDx=0;entryDy=0;" edge="1" parent="1" source="F6pTabbAg8eNlp75tk1d-206" target="F6pTabbAg8eNlp75tk1d-216">
          <mxGeometry relative="1" as="geometry">
            <mxPoint x="1170" y="-1622.09" as="sourcePoint" />
            <mxPoint x="1240" y="-1622.09" as="targetPoint" />
          </mxGeometry>
        </mxCell>
        <mxCell id="F6pTabbAg8eNlp75tk1d-216" value="" style="ellipse;whiteSpace=wrap;html=1;aspect=fixed;" vertex="1" parent="1">
          <mxGeometry x="1190" y="-1642.59" width="40" height="40" as="geometry" />
        </mxCell>
        <mxCell id="F6pTabbAg8eNlp75tk1d-217" style="edgeStyle=orthogonalEdgeStyle;rounded=0;orthogonalLoop=1;jettySize=auto;html=1;entryX=0;entryY=0.5;entryDx=0;entryDy=0;entryPerimeter=0;" edge="1" parent="1" source="F6pTabbAg8eNlp75tk1d-212" target="F6pTabbAg8eNlp75tk1d-213">
          <mxGeometry relative="1" as="geometry" />
        </mxCell>
        <mxCell id="F6pTabbAg8eNlp75tk1d-218" value="Sim" style="edgeLabel;html=1;align=center;verticalAlign=middle;resizable=0;points=[];" connectable="0" vertex="1" parent="F6pTabbAg8eNlp75tk1d-217">
          <mxGeometry x="-0.2032" y="-2" relative="1" as="geometry">
            <mxPoint as="offset" />
          </mxGeometry>
        </mxCell>
      </root>
    </mxGraphModel>
  </diagram>
</mxfile>
